<svg width="780" height="1680" viewBox="0 0 780 1680" fill="none" xmlns="http://www.w3.org/2000/svg">
  <rect width="780" height="1680" fill="#141414"/>
  <rect x="42" y="62" width="696" height="144" rx="16" fill="#FAFAFA"/>
  <rect x="74" y="100" width="210" height="12" rx="6" fill="#161616"/>
  <rect x="74" y="124" width="460" height="10" rx="5" fill="#6B7280"/>

  <rect x="42" y="244" width="696" height="294" rx="18" fill="#1D1D1D" stroke="#2F2F2F"/>
  <rect x="74" y="282" width="172" height="10" rx="5" fill="#F59E0B"/>
  <rect x="74" y="304" width="610" height="10" rx="5" fill="#4A4A4A"/>
  <rect x="74" y="326" width="560" height="10" rx="5" fill="#4A4A4A"/>
  <rect x="74" y="366" width="296" height="144" rx="12" fill="#0E0E0E" stroke="#F59E0B"/>
  <rect x="392" y="366" width="296" height="144" rx="12" fill="#0E0E0E" stroke="#3B3B3B"/>

  <rect x="42" y="576" width="340" height="250" rx="16" fill="#FAFAFA"/>
  <rect x="398" y="576" width="340" height="250" rx="16" fill="#FAFAFA"/>
  <rect x="72" y="614" width="130" height="10" rx="5" fill="#161616"/>
  <rect x="72" y="636" width="270" height="10" rx="5" fill="#9CA3AF"/>
  <rect x="428" y="614" width="130" height="10" rx="5" fill="#161616"/>
  <rect x="428" y="636" width="270" height="10" rx="5" fill="#9CA3AF"/>

  <rect x="42" y="864" width="696" height="320" rx="18" fill="#1D1D1D" stroke="#2F2F2F"/>
  <rect x="74" y="904" width="148" height="12" rx="6" fill="#F59E0B"/>
  <rect x="74" y="928" width="614" height="10" rx="5" fill="#4A4A4A"/>
  <rect x="74" y="950" width="552" height="10" rx="5" fill="#4A4A4A"/>
  <rect x="74" y="998" width="614" height="160" rx="12" fill="#0F0F0F" stroke="#F59E0B"/>

  <rect x="42" y="1222" width="696" height="398" rx="20" fill="#FAFAFA"/>
  <rect x="74" y="1266" width="188" height="12" rx="6" fill="#161616"/>
  <rect x="74" y="1290" width="612" height="10" rx="5" fill="#9CA3AF"/>
  <rect x="74" y="1312" width="530" height="10" rx="5" fill="#9CA3AF"/>
  <rect x="74" y="1362" width="296" height="232" rx="14" fill="#ECECEC"/>
  <rect x="392" y="1362" width="296" height="232" rx="14" fill="#ECECEC"/>
</svg>
