<svg width="780" height="1680" viewBox="0 0 780 1680" fill="none" xmlns="http://www.w3.org/2000/svg">
  <rect width="780" height="1680" fill="#111827"/>
  <rect x="44" y="62" width="692" height="126" rx="16" fill="#F3F4F6"/>
  <rect x="76" y="98" width="220" height="12" rx="6" fill="#111827"/>
  <rect x="76" y="122" width="420" height="10" rx="5" fill="#6B7280"/>

  <rect x="44" y="226" width="692" height="282" rx="18" fill="#1F2937"/>
  <rect x="76" y="264" width="120" height="10" rx="5" fill="#22D3EE"/>
  <rect x="76" y="286" width="612" height="10" rx="5" fill="#4B5563"/>
  <rect x="76" y="308" width="560" height="10" rx="5" fill="#4B5563"/>
  <rect x="76" y="350" width="190" height="126" rx="12" fill="#111827" stroke="#374151"/>
  <rect x="290" y="350" width="190" height="126" rx="12" fill="#111827" stroke="#374151"/>
  <rect x="504" y="350" width="190" height="126" rx="12" fill="#111827" stroke="#374151"/>

  <rect x="44" y="546" width="338" height="272" rx="18" fill="#F3F4F6"/>
  <rect x="398" y="546" width="338" height="272" rx="18" fill="#F3F4F6"/>
  <rect x="74" y="586" width="122" height="10" rx="5" fill="#111827"/>
  <rect x="74" y="608" width="260" height="10" rx="5" fill="#9CA3AF"/>
  <rect x="428" y="586" width="122" height="10" rx="5" fill="#111827"/>
  <rect x="428" y="608" width="260" height="10" rx="5" fill="#9CA3AF"/>

  <rect x="44" y="856" width="692" height="360" rx="20" fill="#1F2937"/>
  <rect x="76" y="898" width="146" height="12" rx="6" fill="#22D3EE"/>
  <rect x="76" y="922" width="616" height="10" rx="5" fill="#4B5563"/>
  <rect x="76" y="944" width="548" height="10" rx="5" fill="#4B5563"/>
  <rect x="76" y="992" width="616" height="190" rx="14" fill="#111827" stroke="#374151"/>

  <rect x="44" y="1254" width="692" height="366" rx="20" fill="#F3F4F6"/>
  <rect x="76" y="1296" width="176" height="12" rx="6" fill="#111827"/>
  <rect x="76" y="1320" width="612" height="10" rx="5" fill="#9CA3AF"/>
  <rect x="76" y="1342" width="500" height="10" rx="5" fill="#9CA3AF"/>
  <rect x="76" y="1390" width="294" height="200" rx="14" fill="#E5E7EB"/>
  <rect x="394" y="1390" width="294" height="200" rx="14" fill="#E5E7EB"/>
</svg>
